<svg width="24" height="24" viewBox="0 0 24 24" fill="none" xmlns="http://www.w3.org/2000/svg">
<g clip-path="url(#clip0_5_313)">
<path d="M16.5391 11.7379L16.5276 11.7682C16.5312 11.759 16.5341 11.7497 16.5377 11.7406L16.5391 11.7379ZM15.3235 17.605L14.9916 18.0154C15.4404 18.0696 15.8748 18.1332 16.2816 18.2102L14.9666 18.5998L16.7218 19.0666L18.03 18.654C18.8335 18.9235 19.9462 19.253 20.3148 19.6277H17.6916L17.9522 20.3899H20.6743C20.6662 20.8195 19.8982 21.1685 19.1647 21.4512L17.3045 21.049L15.5518 21.677L17.4238 22.1042C16.3308 22.4018 14.4958 22.5828 12.9766 22.6661L12.9127 21.7925H11.0873L11.0232 22.6661C9.50401 22.5828 7.66921 22.4021 6.57601 22.1045L8.44825 21.677L6.69553 21.049L4.83505 21.4512C4.11217 21.2316 3.33385 20.8195 3.32569 20.3899H6.04801L6.30865 19.6277H3.68545C4.05409 19.253 5.16673 18.9235 5.97025 18.654L7.27849 19.0666L9.03361 18.5998L7.71865 18.2102C8.1433 18.1317 8.57041 18.0671 8.99929 18.0166L8.67217 17.6054C5.12377 17.9743 2.17465 18.7598 1.40137 20.0004C0.168005 21.9775 4.71793 23.9664 11.8488 23.9974C11.9549 24.0026 12.0595 23.9988 12.1584 23.9974C19.2852 23.9647 23.831 21.9766 22.5986 20.0004C21.8249 18.7594 18.8738 17.9736 15.3233 17.605H15.3235Z" fill="#1E2875"/>
<path d="M11.9652 6.00722e-05C11.3029 0.00920694 10.6708 0.278739 10.2058 0.750343C9.74067 1.22195 9.47995 1.8577 9.48001 2.52006C9.48001 3.18841 9.74551 3.82938 10.2181 4.30197C10.6907 4.77456 11.3317 5.04006 12 5.04006C12.6684 5.04006 13.3093 4.77456 13.7819 4.30197C14.2545 3.82938 14.52 3.18841 14.52 2.52006C14.52 1.85171 14.2545 1.21074 13.7819 0.738151C13.3093 0.265559 12.6684 6.00721e-05 12 6.00721e-05C11.9884 -2.00241e-05 11.9768 -2.0024e-05 11.9652 6.00722e-05ZM11.9515 5.66214C10.0714 5.66262 8.2085 6.47046 8.40434 8.08518L8.88433 11.5952C8.96857 12.2127 9.38593 13.2001 10.0092 13.2001H10.0536L10.5641 19.0875C10.5862 19.3527 10.7782 19.5675 11.0441 19.5675H12.9641C13.23 19.5675 13.422 19.3527 13.4441 19.0875L13.9546 13.2003H13.9992C14.6225 13.2003 15.0396 12.2127 15.1241 11.5952L15.6041 8.08518C15.7299 6.46902 13.8319 5.6619 11.9515 5.66214ZM-38.22 14.8361L-38.2315 14.8664C-38.2277 14.8573 -38.225 14.8481 -38.2212 14.8388C-38.2212 14.8378 -38.2202 14.8371 -38.2197 14.8364L-38.22 14.8361Z" fill="#1E2875"/>
</g>
<defs>
<clipPath id="clip0_5_313">
<rect width="24" height="24" fill="white"/>
</clipPath>
</defs>
</svg>
